<svg version="1.1" xmlns="http://www.w3.org/2000/svg" xmlns:xlink="http://www.w3.org/1999/xlink" width="782.01213" height="717.80993" viewBox="499,38.69007,782.01213,717.80993"><defs><clipPath id="clip-1"><rect x="1140.362" y="544.76755" transform="scale(0.61068,0.61068)" width="512" height="512" id="clip-1" fill="none"/></clipPath></defs><g id="document" fill="#ffffff" fill-rule="nonzero" stroke="#000000" stroke-width="0" stroke-linecap="butt" stroke-linejoin="miter" stroke-miterlimit="10" stroke-dasharray="" stroke-dashoffset="0" font-family="none" font-weight="none" font-size="none" text-anchor="none" style="mix-blend-mode: normal"><rect x="499" y="40.35714" transform="scale(1,1.4)" width="700" height="500" id="Shape 1 1" vector-effect="non-scaling-stroke"/></g><g fill="none" fill-rule="nonzero" stroke="none" stroke-width="1" stroke-linecap="butt" stroke-linejoin="miter" stroke-miterlimit="10" stroke-dasharray="" stroke-dashoffset="0" font-family="none" font-weight="none" font-size="none" text-anchor="none" style="mix-blend-mode: normal"><g><g id="stage"><g id="layer1 1"><g clip-path="url(#clip-1)" id="Group 1"><path d="M911.35114,528.09374c-9.04351,0 -16.33439,6.30096 -18.55298,14.65624h-35.1866v9.77083h35.1866c2.21859,8.35528 9.50946,14.65624 18.55298,14.65624c10.7754,0 19.54167,-8.76627 19.54167,-19.54167c0,-10.7754 -8.76627,-19.54167 -19.54167,-19.54167zM911.35114,557.40624c-5.39594,0 -9.77083,-4.37489 -9.77083,-9.77083c0,-5.39716 4.37489,-9.77083 9.77083,-9.77083c5.39594,0 9.77083,4.37367 9.77083,9.77083c0,5.39594 -4.37489,9.77083 -9.77083,9.77083zM1009.05946,518.32291c0,-17.90017 -9.92839,-34.07516 -24.96142,-42.56602c3.50895,-6.3883 5.40999,-13.58634 5.40999,-20.94439c0,-11.8679 -8.09269,-35.9585 -31.06575,-42.29183c1.1438,-3.68055 1.73921,-7.53331 1.73921,-11.44775c0,-20.31723 -15.58998,-37.0626 -35.4382,-38.91417c-1.6702,-6.69669 -5.0845,-12.82544 -10.02243,-17.8336c-7.30004,-7.40324 -17.45132,-11.64806 -27.85298,-11.64806c-14.65258,0 -27.44688,8.09636 -34.14174,20.05097c-6.69485,-11.95461 -19.48915,-20.05097 -34.14051,-20.05097c-10.40167,0 -20.55417,4.24603 -27.8542,11.64927c-4.93793,5.00694 -8.351,11.13569 -10.02121,17.83238c-19.84944,1.85158 -35.4382,18.59695 -35.4382,38.91417c0,3.90528 0.59052,7.74827 1.72943,11.42027c-11.84713,3.21339 -19.08732,10.93723 -23.31992,17.66689c-6.10677,9.70976 -7.73606,20.06501 -7.73606,24.65242c0,7.35805 1.89982,14.55609 5.40999,20.94439c-15.03303,8.49085 -24.96265,24.66585 -24.96265,42.56602c0,20.23356 12.19705,37.7203 30.23707,45.05881c-0.60518,2.86408 -0.9093,5.76235 -0.9093,8.68078c0,24.24449 19.73159,43.96874 43.98585,43.96874c2.21249,0 4.41397,-0.17404 6.59654,-0.52029c1.84059,6.38951 5.21518,12.25567 9.95465,17.16003c7.78369,8.05361 18.67694,12.67277 29.88409,12.67277c15.79517,0 29.56043,-8.8597 36.58444,-21.86773c7.02401,13.00803 20.78928,21.86773 36.58566,21.86773c11.20714,0 22.10041,-4.61916 29.88531,-12.67399c4.73947,-4.90434 8.11284,-10.76929 9.9522,-17.1588c2.18378,0.34625 4.38405,0.52029 6.59654,0.52029c24.25426,0 43.98707,-19.72426 43.98707,-43.96874c0,-2.91843 -0.30411,-5.8167 -0.9093,-8.68078c18.03879,-7.3385 30.23584,-24.82525 30.23584,-45.05881zM847.91217,415.72917h-25.48722c-2.21859,-8.35528 -9.50946,-14.65624 -18.55298,-14.65624c-10.7754,0 -19.54167,8.76627 -19.54167,19.54167c0,10.7754 8.76627,19.54167 19.54167,19.54167c9.04351,0 16.33439,-6.30096 18.55298,-14.65624h25.48722v58.625h-34.26936c-13.47275,0 -24.42708,10.95432 -24.42708,24.42708v20.53035c-8.35528,2.21859 -14.65624,9.50946 -14.65624,18.55298c0,10.7754 8.76627,19.54167 19.54167,19.54167c10.7754,0 19.54167,-8.76627 19.54167,-19.54167c0,-9.04351 -6.30096,-16.33439 -14.65624,-18.55298v-20.53035c0,-8.0817 6.57455,-14.65624 14.65625,-14.65624h34.26936v109.92187c0,17.53803 -14.22449,31.75521 -31.77048,31.75521c-17.52276,0 -32.29566,-14.32099 -31.66849,-32.78664c-4.48542,2.15997 -9.45328,3.47415 -14.76678,3.47415c-18.89679,0 -34.21501,-15.3109 -34.21501,-34.19791c0,-5.51502 1.42898,-10.6496 3.74895,-15.26326c-18.71298,-2.91537 -33.07671,-18.95481 -33.07671,-38.47632c0,-18.78442 13.2694,-34.44585 30.94057,-38.20213c-6.94279,-6.25944 -11.38791,-15.22723 -11.38791,-25.30829c0,-6.4347 5.53762,-34.07516 33.27579,-34.07395c1.25556,0 2.55934,0.05741 3.90833,0.17527c-4.83657,-5.22617 -7.85758,-12.1598 -7.85758,-19.8409c0,-16.18905 13.12956,-29.3125 29.32654,-29.3125c1.69158,0 3.32575,0.2229 4.93793,0.49709c-0.23816,-16.95423 13.33841,-29.80958 29.2783,-29.80958c16.19699,0 29.32654,13.12345 29.32654,29.3125zM813.64281,420.61458c0,5.39594 -4.37489,9.77083 -9.77083,9.77083c-5.39594,0 -9.77083,-4.37489 -9.77083,-9.77083c0,-5.39716 4.37489,-9.77083 9.77083,-9.77083c5.39594,0 9.77083,4.37367 9.77083,9.77083zM803.87198,547.63541c0,5.39594 -4.37489,9.77083 -9.77083,9.77083c-5.39594,0 -9.77083,-4.37489 -9.77083,-9.77083c0,-5.39716 4.37489,-9.77083 9.77083,-9.77083c5.39594,0 9.77083,4.37367 9.77083,9.77083zM966.21192,556.79923c2.31997,4.61367 3.75016,9.74824 3.75016,15.26326c0,18.88702 -15.31944,34.19791 -34.21624,34.19791c-5.3135,0 -10.28136,-1.31418 -14.76678,-3.47415c0.62838,18.46932 -14.1506,32.78664 -31.66726,32.78664c-17.5472,0 -31.77169,-14.21717 -31.77169,-31.75521v-109.92187h24.49853c13.47275,0 24.42709,-10.95432 24.42709,-24.42708v-30.30118c8.35528,-2.21859 14.65625,-9.50946 14.65625,-18.55298c0,-10.7754 -8.76627,-19.54167 -19.54167,-19.54167c-10.7754,0 -19.54167,8.76627 -19.54167,19.54167c0,9.04351 6.30096,16.33439 14.65625,18.55298v30.30118c0,8.0817 -6.57455,14.65624 -14.65624,14.65624h-24.49853v-112.36457c0,-16.18905 13.13077,-29.3125 29.32777,-29.3125c15.94784,0 29.51525,12.8633 29.27708,29.80958c1.61341,-0.27419 3.24636,-0.49709 4.93793,-0.49709c16.19699,0 29.32777,13.12345 29.32777,29.3125c0,7.68109 -3.02224,14.61473 -7.85881,19.8409c1.35143,-0.11786 2.654,-0.17527 3.912,-0.17527c27.89451,0 33.27335,27.94946 33.27335,34.07395c0,10.08106 -4.44633,19.04884 -11.38912,25.30829c17.67238,3.75628 30.94057,19.41769 30.94057,38.20213c0,19.52151 -14.36373,35.56094 -33.07671,38.47632zM891.80947,420.61458c0,-5.39716 4.37489,-9.77083 9.77083,-9.77083c5.39594,0 9.77083,4.37367 9.77083,9.77083c0,5.39594 -4.37489,9.77083 -9.77083,9.77083c-5.39594,0 -9.77083,-4.37489 -9.77083,-9.77083z" id="CompoundPath 1" fill="#000000"/></g><g id="Group 1" fill="#000000"><g id="Group 1"><path d="M849.68341,731.49997c-38.30887,0 -73.6519,-5.40891 -106.02907,-16.22674c-32.50075,-10.81783 -60.61452,-26.62386 -84.34131,-47.41812c-23.85036,-20.67407 -42.38691,-46.03584 -55.60965,-76.08535c-13.34631,-30.04951 -20.01947,-64.00546 -20.01947,-101.86784c0,-61.90199 19.77232,-115.51031 59.31697,-160.82498c39.54465,-45.43485 98.24372,-85.581 176.09723,-120.43844l217.80447,-97.36041v-2.70446l-394.82853,-7.21188v75.72477h-17.60973v-69.41436c0,-18.02971 8.95933,-26.74406 26.878,-26.14307l403.16999,9.91633v30.6505l-228.92641,101.86784c-73.52833,32.45347 -129.26155,69.41436 -167.19969,110.8827c-38.06172,41.46833 -57.09258,90.14853 -57.09258,146.04063v18.02971c0,32.45347 5.99348,61.72169 17.98045,87.80467c12.11055,26.20317 29.16418,48.49991 51.16087,66.89021c21.87313,18.27011 47.94788,32.33327 78.22424,42.18952c30.27637,9.97643 63.95111,14.96465 101.0242,14.96465c48.19504,0 92.06487,-8.11336 131.60951,-24.3401c39.54465,-16.22674 74.45514,-42.97079 104.73151,-80.2322l12.97558,14.42376c-32.13002,39.06436 -69.20312,67.31089 -111.21931,84.73963c-42.01618,17.42871 -88.04862,26.14307 -138.0973,26.14307" id="CompoundPath 1"/></g></g><path d="M1142.76847,40.2099c-9.18791,0 -16.66677,7.47886 -16.66677,16.66677c0,9.18791 7.47886,16.66677 16.66677,16.66677c8.32632,0 15.24727,-6.13704 16.47609,-14.12438h37.47905v129.28753c-7.98734,1.22882 -14.12438,8.14977 -14.12438,16.47609c0,9.18791 7.47886,16.66677 16.66677,16.66677c9.18791,0 16.66677,-7.47886 16.66677,-16.66677c0,-8.32632 -6.13704,-15.24727 -14.12438,-16.47609v-131.82992c0,-1.40538 -1.13701,-2.54239 -2.54239,-2.54239h-40.02144c-1.22882,-7.98734 -8.14977,-14.12438 -16.47609,-14.12438zM1142.76847,68.45867c-6.38422,0 -11.58199,-5.19071 -11.58199,-11.58199c0,-6.39128 5.19777,-11.58199 11.58199,-11.58199c6.38422,0 11.58199,5.19071 11.58199,11.58199c0,6.39128 -5.19777,11.58199 -11.58199,11.58199zM1199.266,216.76468c-6.38422,0 -11.58199,-5.19777 -11.58199,-11.58199c0,-6.38422 5.19777,-11.58199 11.58199,-11.58199c6.38422,0 11.58199,5.19777 11.58199,11.58199c0,6.38422 -5.19777,11.58199 -11.58199,11.58199zM1042.93761,161.87657c-13.08624,0 -23.7219,10.64978 -23.7219,23.72896c0,12.22465 9.29384,22.32359 21.18657,23.59478v28.08582v16.5896c-7.98734,1.22882 -14.12438,8.14977 -14.12438,16.47609c0,9.18791 7.47886,16.66677 16.66677,16.66677c9.18791,0 16.65971,-7.47886 16.65971,-16.66677c0,-8.32632 -6.13704,-15.24727 -14.12438,-16.47609v-44.67542c11.89273,-1.27826 21.18657,-11.37013 21.18657,-23.59478c0,-13.08624 -10.64272,-23.72896 -23.72896,-23.72896zM1042.93761,204.24972c-10.28255,0 -18.64418,-8.36163 -18.64418,-18.64418c0,-10.28255 8.36163,-18.64418 18.64418,-18.64418c10.28255,0 18.65125,8.36163 18.65125,18.64418c0,10.28255 -8.3687,18.64418 -18.65125,18.64418zM1042.93761,281.93382c-6.38422,0 -11.58199,-5.19777 -11.58199,-11.58199c0,-6.38422 5.19777,-11.58199 11.58199,-11.58199c6.38422,0 11.58199,5.19777 11.58199,11.58199c0,6.38422 -5.19777,11.58199 -11.58199,11.58199zM1142.76847,96.70743c-13.08624,0 -23.72896,10.64978 -23.72896,23.72896c0,12.21759 9.29384,22.31652 21.18657,23.59478v31.85048l-39.08216,39.0751c-4.06782,-3.28392 -9.25147,-5.25427 -14.87297,-5.25427c-13.08624,0 -23.72896,10.64272 -23.72896,23.72896c0,13.08624 10.64272,23.72896 23.72896,23.72896c13.08624,0 23.72896,-10.64272 23.72896,-23.72896c0,-5.62857 -1.97035,-10.80515 -5.25427,-14.87297l39.82369,-39.82369c0.48023,-0.47317 0.74153,-1.12289 0.74153,-1.7938v-32.90275c11.89273,-1.27119 21.18657,-11.36307 21.18657,-23.59478c0,-13.0933 -10.64272,-23.73602 -23.72896,-23.73602zM1142.76847,139.08058c-10.28255,0 -18.65125,-8.36163 -18.65125,-18.64418c0,-10.28255 8.3687,-18.64418 18.65125,-18.64418c10.28255,0 18.64418,8.36163 18.64418,18.64418c0,10.28255 -8.36163,18.64418 -18.64418,18.64418zM1086.27094,252.07563c-10.28255,0 -18.64418,-8.36163 -18.64418,-18.64418c0,-10.28255 8.36163,-18.64418 18.64418,-18.64418c10.28255,0 18.64418,8.36163 18.64418,18.64418c0,10.28255 -8.36163,18.64418 -18.64418,18.64418zM1153.30119,210.54222c-9.19497,0 -16.66677,7.47886 -16.66677,16.66677c0,8.40401 6.26416,15.38851 14.3645,16.5114v44.53418c-11.89273,1.27119 -21.18657,11.37013 -21.18657,23.59478c0,13.08624 10.64978,23.7219 23.72896,23.7219c13.07918,0 23.72896,-10.63566 23.72896,-23.7219c0,-12.22465 -9.29384,-22.32359 -21.18657,-23.59478v-44.6048c7.86728,-1.32769 13.88427,-8.19214 13.88427,-16.43372c0,-9.19497 -7.4718,-16.67383 -16.66677,-16.67383zM1153.30119,238.79099c-6.38422,0 -11.58199,-5.19071 -11.58199,-11.58199c0,-6.39128 5.19071,-11.58199 11.58199,-11.58199c6.39128,0 11.58199,5.19071 11.58199,11.58199c0,6.39128 -5.19777,11.58199 -11.58199,11.58199zM1153.5413,330.49354c-10.28255,0 -18.64418,-8.36163 -18.64418,-18.64418c0,-10.28255 8.36163,-18.65125 18.64418,-18.65125c10.28255,0 18.64418,8.3687 18.64418,18.65125c0,10.28255 -8.36163,18.64418 -18.64418,18.64418z" id="CompoundPath 1" fill="#000000"/><rect x="149.39021" y="-37.47848" transform="scale(7.06219,-7.06219)" width="32" height="32" id="Shape 1" fill="none"/></g></g></g></g></svg>